<?xml version="1.0" ?><svg data-name="Layer 1" id="Layer_1" viewBox="0 0 100 100" xmlns="http://www.w3.org/2000/svg"><defs><style>.cls-1{fill:#4d4d4d;}</style></defs><title/><path class="cls-1" d="M93.58887,74.57275l-0.00018.00012L56.0625,9.57422a6.99947,6.99947,0,0,0-12.124-.00049L6.41132,74.57288l-0.00018-.00012c-1.748,3.02539-.94238,10.82227,1.56543,15.168,2.10254,3.6416,4.87012,4.18555,6.333,4.18555H85.69043c1.46289,0,4.23047-.54395,6.333-4.18555C94.53125,85.395,95.33691,77.59814,93.58887,74.57275Zm-5.19531,3.00049,0.03131-.01807,0.00006,0.00043-0.03137.01813-0.00214-.00415Zm-39.25879-65a0.99972,0.99972,0,0,1,1.73145.00049L88.34894,77.496a3.06729,3.06729,0,0,1,.13843.69495A2.33941,2.33941,0,0,1,86.1416,80.4624H13.8584a2.33941,2.33941,0,0,1-2.34576-2.27148,3.06729,3.06729,0,0,1,.13843-0.69495ZM11.57513,77.55518l0.03131,0.01807,0.00214-.00366-0.00214.00415-0.03137-.01813Zm74.1153,10.37109H14.30957a1.67223,1.67223,0,0,1-.89844-0.80566,11.565,11.565,0,0,1-1.5188-4.03076,5.383,5.383,0,0,0,1.96606.37256H86.1416a5.383,5.383,0,0,0,1.96606-.37256,11.565,11.565,0,0,1-1.5188,4.03076A1.67223,1.67223,0,0,1,85.69043,87.92627Z"/><path class="cls-1" d="M35.66028,62.7851s3.90247,6.066,4.10114,6.36938l0.00214,0.001a11.91441,11.91441,0,0,0,1.41833,2.04333c0.05042,0.05737.09912,0.11469,0.15125,0.17035a11.79463,11.79463,0,0,0,2.5097,2.11511,13.28857,13.28857,0,0,0,9.42749,1.55725,12.15169,12.15169,0,0,0,9.6228-11.41V62.57477l-0.00055-.02161V45.63977a2.356,2.356,0,0,0-4.71191,0v7.76434a0.47059,0.47059,0,0,1-.94006-0.03241V41.86847a2.35593,2.35593,0,1,0-4.71185,0v10.5293a0.47012,0.47012,0,0,1-.94025,0V39.03845a2.35587,2.35587,0,1,0-4.71173,0V52.34363a0.47,0.47,0,1,1-.94006,0v-11.518a2.35593,2.35593,0,1,0-4.71185-.00012V59.91565a0.43343,0.43343,0,0,1-.778.22192l-3.85852-5.111a2.52032,2.52032,0,0,0-4.35028,2.5462Z"/></svg>